<svg viewBox="0 0 512 512" xmlns="http://www.w3.org/2000/svg"><path d="m440.757812 160.898438c8.085938-9.613282 10.242188-18.828126 10.242188-25.898438 0-11.488281-5.648438-28.367188-32.558594-43.546875-14.644531-8.261719-34.335937-15.296875-57.441406-20.585937v-40.867188h-15c-16.09375 0-31.351562 3.644531-45 10.144531v-40.144531h-90v40.144531c-13.648438-6.5-28.90625-10.144531-45-10.144531h-15v40.867188c-36.117188 8.269531-90 26.925781-90 64.132812 0 7.070312 2.15625 16.285156 10.242188 25.898438-37.332032 20.222656-71.242188 51.8125-71.242188 94.101562 0 65.257812 79.003906 104.84375 142.101562 121.167969l54.75 14.164062-40.53125-39.4375c-22.777343-22.160156-35.320312-50.890625-35.320312-80.894531 0-31.179688 13.417969-60.214844 36.339844-81.980469-7.472656 20.699219-10.945313 42.824219-10.023438 65.289063 1.765625 43.179687 19.566406 83.789062 50.125 114.347656l43.558594 43.558594v100.785156h30v-100.785156l43.558594-43.558594c30.558594-30.558594 48.359375-71.167969 50.125-114.347656.921875-22.464844-2.550782-44.589844-10.023438-65.289063 22.921875 21.765625 36.339844 50.800781 36.339844 81.980469 0 30.003906-12.542969 58.734375-35.316406 80.894531l-40.53125 39.4375 54.746094-14.167969c63.207031-16.351562 142.101562-55.957031 142.101562-121.164062 0-42.289062-33.910156-73.878906-71.242188-94.101562zm-109.757812-85.898438c0 36.21875-25.808594 66.523438-60 73.492188v-13.492188c0-36.21875 25.808594-66.523438 60-73.492188zm-85.289062 105h20.578124c14.191407 28.765625 10.203126 63.707031-10.289062 88.441406-20.492188-24.746094-24.480469-59.679687-10.289062-88.441406zm25.289062-150v31.597656c-5.714844 5.835938-10.761719 12.335938-15 19.375-4.238281-7.039062-9.285156-13.539062-15-19.375v-31.597656zm-90 31.507812c34.191406 6.96875 60 37.273438 60 73.492188v13.492188c-34.191406-6.96875-60-37.273438-60-73.492188zm-90 208.492188c0 21.847656 5.164062 43.101562 14.949219 62.511719-47.25-20.015625-75.949219-48.457031-75.949219-77.511719 0-35.570312 42.375-69.273438 106.519531-88.5-28.175781 26.914062-45.519531 63.277344-45.519531 103.5zm9.445312-122.65625c-6.839843-5.140625-9.445312-9.585938-9.445312-12.34375 0-8.359375 19.761719-23.589844 63.238281-34.082031 2.503907 9.820312 6.398438 19.085937 11.453125 27.589843-23.375 4.585938-45.414062 10.960938-65.246094 18.835938zm192.898438 199.097656-37.34375 37.34375-37.34375-37.34375c-48.535156-48.53125-54.578125-125.652344-16.078125-181.082031 4.378906 2.597656 8.957031 4.886719 13.714844 6.835937-17.640625 41.308594-8.945313 90.507813 23.59375 123.058594l16.113281 16.074219 16.132812-16.089844c32.519532-32.535156 41.214844-81.734375 23.574219-123.042969 4.753907-1.949218 9.335938-4.234374 13.714844-6.835937 38.5 55.425781 32.457031 132.550781-16.078125 181.082031zm52.964844-217.933594c5.054687-8.503906 8.949218-17.769531 11.453125-27.589843 43.476562 10.492187 63.238281 25.722656 63.238281 34.082031 0 2.757812-2.605469 7.203125-9.445312 12.34375-19.832032-7.875-41.871094-14.25-65.246094-18.835938zm59.742187 204.003907c9.785157-19.410157 14.949219-40.664063 14.949219-62.511719 0-40.226562-17.347656-76.585938-45.519531-103.5 64.144531 19.226562 106.519531 52.929688 106.519531 88.5 0 29.054688-28.699219 57.496094-75.949219 77.511719zm0 0"/></svg>